<svg width="24" height="24" viewBox="0 0 24 24" fill="none" xmlns="http://www.w3.org/2000/svg">
<path d="M3 8.39995V8.39978C2.9998 7.21857 3.47454 6.08689 4.3174 5.25934C5.16027 4.4318 6.30048 3.9779 7.48148 3.99978L7.49339 4L7.50531 3.99994C8.93598 3.99234 10.3011 4.59907 11.2542 5.6661L12 6.50111L12.7458 5.6661C13.6989 4.59907 15.064 3.99234 16.4947 3.99994L16.5066 4L16.5185 3.99978C17.6995 3.9779 18.8397 4.4318 19.6826 5.25934C20.5255 6.08689 21.0002 7.21857 21 8.39978V8.39995C21 10.6714 19.6432 12.7766 17.6451 14.807C16.659 15.8091 15.5547 16.7554 14.454 17.6628C14.1435 17.9188 13.8309 18.1736 13.5211 18.426C12.9988 18.8517 12.4848 19.2706 12.003 19.6773C11.4944 19.2445 10.95 18.7994 10.3973 18.3475C10.1158 18.1173 9.83206 17.8853 9.5499 17.6524C8.4487 16.7433 7.34397 15.7981 6.35706 14.7976C4.35764 12.7706 3 10.6724 3 8.39995Z" stroke="#111111" stroke-width="2"/>
</svg>
